<svg t="1666775946573" class="icon" viewBox="0 0 1024 1024" version="1.1" xmlns="http://www.w3.org/2000/svg" p-id="2679" width="200" height="200">
	<path d="M865.28 898.56l-10.24-20.48c-35.84-71.68-92.16-128-158.72-163.84C785.92 652.8 844.8 550.4 844.8 435.2c0-184.32-148.48-332.8-332.8-332.8S179.2 250.88 179.2 435.2c0 115.2 58.88 217.6 148.48 276.48-66.56 35.84-122.88 92.16-158.72 163.84l-10.24 20.48c-12.8 25.6-2.56 56.32 23.04 69.12s56.32 2.56 69.12-23.04l10.24-20.48c48.64-94.72 143.36-153.6 250.88-153.6s202.24 58.88 250.88 153.6l10.24 20.48c12.8 25.6 43.52 35.84 69.12 23.04 25.6-10.24 35.84-40.96 23.04-66.56zM281.6 435.2c0-128 102.4-230.4 230.4-230.4s230.4 102.4 230.4 230.4-102.4 230.4-230.4 230.4-230.4-102.4-230.4-230.4z" p-id="2680"></path>
</svg>